<svg width="24" height="24" viewBox="0 0 24 24" fill="none" xmlns="http://www.w3.org/2000/svg">
<path d="M21.2632 14.8885V13.8948H21.6842C21.9171 13.8948 22.1053 13.7066 22.1053 13.4738C22.1053 13.2409 21.9171 13.0527 21.6842 13.0527H21.2632H20.8421H14.9474H14.5263H14.1053C13.8724 13.0527 13.6842 13.2409 13.6842 13.4738C13.6842 13.7066 13.8724 13.8948 14.1053 13.8948H14.5263V14.8885C14.5263 16.3769 15.3032 17.7298 16.5588 18.5264C15.3036 19.3231 14.5263 20.6759 14.5263 22.1643V23.158H14.1053C13.8724 23.158 13.6842 23.3462 13.6842 23.5791C13.6842 23.8119 13.8724 24.0001 14.1053 24.0001H14.5263H14.9474H20.8421H21.2632H21.6842C21.9171 24.0001 22.1053 23.8119 22.1053 23.5791C22.1053 23.3462 21.9171 23.158 21.6842 23.158H21.2632V22.1643C21.2632 20.6759 20.4863 19.3231 19.2308 18.5264C20.4863 17.7298 21.2632 16.3769 21.2632 14.8885ZM20.4211 22.1643V23.158H15.3684V22.1643C15.3684 20.7668 16.2244 19.5125 17.5567 18.9475H18.2324C19.5651 19.5125 20.4211 20.7664 20.4211 22.1643ZM18.2329 18.1054H17.5571C16.2249 17.5403 15.3689 16.2864 15.3689 14.8885V13.8948H20.4215V14.8885C20.4211 16.2864 19.5651 17.5403 18.2329 18.1054Z" fill="black"/>
<path d="M12 5.89484H19.5789C19.8118 5.89484 20 5.70663 20 5.47379C20 5.24094 19.8118 5.05273 19.5789 5.05273H12C11.7672 5.05273 11.5789 5.24094 11.5789 5.47379C11.5789 5.70663 11.7672 5.89484 12 5.89484Z" fill="black"/>
<path d="M12 11.7894H19.5789C19.8118 11.7894 20 11.6012 20 11.3683C20 11.1355 19.8118 10.9473 19.5789 10.9473H12C11.7672 10.9473 11.5789 11.1355 11.5789 11.3683C11.5789 11.6012 11.7672 11.7894 12 11.7894Z" fill="black"/>
<path d="M9.29642 3.04896C9.12042 2.89822 8.85431 2.91717 8.70316 3.09443L6.07242 6.16306L4.46316 4.95633C4.27747 4.81696 4.01347 4.85401 3.8741 5.04054C3.73431 5.22622 3.77221 5.49022 3.95831 5.62959L5.88295 7.07338C5.95831 7.13022 6.04716 7.15759 6.13516 7.15759C6.25431 7.15759 6.37221 7.10748 6.45516 7.01022L9.34231 3.6418C9.49389 3.4658 9.47326 3.20054 9.29642 3.04896Z" fill="black"/>
<path d="M9.29642 8.94352C9.12042 8.79236 8.85431 8.81215 8.70316 8.98899L6.07242 12.0576L4.46316 10.8509C4.27747 10.7115 4.01347 10.7486 3.8741 10.9351C3.73431 11.1208 3.77221 11.3848 3.95831 11.5242L5.88295 12.9679C5.95831 13.0248 6.04716 13.0522 6.13516 13.0522C6.25431 13.0522 6.37221 13.002 6.45516 12.9048L9.34231 9.53636C9.49389 9.36036 9.47326 9.0951 9.29642 8.94352Z" fill="black"/>
<path d="M8.70316 15.3054L6.07242 18.3736L4.46316 17.1668C4.27747 17.0279 4.01347 17.0645 3.8741 17.2511C3.73431 17.4367 3.77221 17.7007 3.95831 17.8401L5.88295 19.2839C5.95831 19.3407 6.04716 19.3681 6.13516 19.3681C6.25431 19.3681 6.37221 19.318 6.45516 19.2207L9.34231 15.8527C9.49389 15.6763 9.47368 15.4106 9.29684 15.2595C9.12042 15.1087 8.85431 15.1281 8.70316 15.3054Z" fill="black"/>
<path d="M18.2417 0H5.75833C2.93138 0 0.631592 2.29979 0.631592 5.12674V17.6101C0.631592 20.4371 2.93138 22.7368 5.75833 22.7368H11.579C11.8118 22.7368 12 22.5486 12 22.3158C12 22.0829 11.8118 21.8947 11.579 21.8947H5.75833C3.39538 21.8947 1.4737 19.9731 1.4737 17.6101V5.12674C1.4737 2.76379 3.39538 0.842105 5.75833 0.842105H18.2417C20.6046 0.842105 22.5263 2.76379 22.5263 5.12674V11.3684C22.5263 11.6013 22.7145 11.7895 22.9474 11.7895C23.1802 11.7895 23.3684 11.6013 23.3684 11.3684V5.12674C23.3684 2.29979 21.0686 0 18.2417 0Z" fill="black"/>
</svg>
