<svg width="24" height="24" viewBox="0 0 24 24" fill="none" xmlns="http://www.w3.org/2000/svg">
<path d="M16.6031 11.5968L10.2703 7.26557C10.0734 7.12026 9.54841 7.12026 9.50623 7.6687V16.3312C9.5531 16.8796 10.0875 16.889 10.2703 16.7343L16.6031 12.4031C16.7672 12.3046 16.9922 11.9015 16.6031 11.5968ZM10.4859 15.4078V8.59214L15.4593 11.9999L10.4859 15.4078Z" fill="black"/>
<path d="M12 0.515625C5.66719 0.515625 0.515625 5.66719 0.515625 12C0.515625 18.3328 5.66719 23.4844 12 23.4844C18.3328 23.4844 23.4844 18.3328 23.4844 12C23.4844 5.66719 18.3328 0.515625 12 0.515625ZM12 22.5047C6.20625 22.5047 1.49531 17.7938 1.49531 12C1.49531 6.20625 6.20625 1.49531 12 1.49531C17.7938 1.49531 22.5047 6.20625 22.5047 12C22.5047 17.7938 17.7938 22.5047 12 22.5047Z" fill="black"/>
</svg>
