<svg width="24" height="24" viewBox="0 0 24 24" fill="none" xmlns="http://www.w3.org/2000/svg">
<path d="M22.7368 15.0337V5.12674C22.7368 2.29979 20.4371 0 17.6101 0H5.12674C2.29979 0 0 2.29979 0 5.12674V17.6101C0 20.4371 2.29979 22.7368 5.12674 22.7368H15.0337C15.9823 23.5251 17.1996 24 18.5263 24C21.5444 24 24 21.5444 24 18.5263C24 17.1996 23.5251 15.9823 22.7368 15.0337ZM5.12674 21.8947C2.76421 21.8947 0.842105 19.9731 0.842105 17.6101V5.12674C0.842105 2.76379 2.76421 0.842105 5.12674 0.842105H17.6101C19.9726 0.842105 21.8947 2.76379 21.8947 5.12674V14.2181C21.8632 14.1933 21.8295 14.1722 21.7975 14.1482C21.7091 14.0817 21.6206 14.0156 21.528 13.9545C21.5183 13.9482 21.5078 13.9427 21.4981 13.9364C21.2817 13.7958 21.0539 13.672 20.8177 13.5625C20.7857 13.5478 20.7545 13.5309 20.7225 13.5166C20.6299 13.4758 20.5352 13.4408 20.44 13.4051C20.3798 13.3823 20.3196 13.3592 20.2585 13.3385C20.1714 13.3095 20.0834 13.2838 19.9945 13.2589C19.9192 13.2379 19.8434 13.2181 19.7672 13.2004C19.6867 13.1819 19.6067 13.1638 19.5251 13.1486C19.4282 13.1305 19.3305 13.1166 19.2324 13.104C19.1667 13.0956 19.1015 13.0851 19.0349 13.0787C18.8665 13.0623 18.6968 13.0526 18.5263 13.0526C15.9436 13.0526 13.7781 14.8531 13.2055 17.2632H11.3684C11.136 17.2632 10.9474 17.4514 10.9474 17.6842C10.9474 17.9171 11.136 18.1053 11.3684 18.1053H13.0741C13.0632 18.2446 13.0526 18.3844 13.0526 18.5263C13.0526 18.6968 13.0627 18.8665 13.0783 19.0349C13.0846 19.1019 13.0947 19.1672 13.1036 19.2333C13.1162 19.3305 13.1301 19.4278 13.1482 19.5238C13.1634 19.6059 13.1815 19.6872 13.2004 19.768C13.2181 19.8434 13.2375 19.9179 13.2581 19.9924C13.2834 20.0825 13.3091 20.1718 13.3389 20.2598C13.3587 20.3192 13.3815 20.3773 13.4034 20.4358C13.4396 20.5326 13.4754 20.6291 13.5166 20.7234C13.5288 20.7512 13.5436 20.7781 13.5562 20.8059C13.6686 21.0501 13.7966 21.2859 13.9427 21.5091C13.9465 21.5149 13.9499 21.5213 13.9537 21.5267C14.0152 21.6198 14.0817 21.7086 14.1482 21.7979C14.1722 21.8299 14.1933 21.8632 14.2177 21.8947H5.12674ZM18.5263 23.1579C17.3385 23.1579 16.2568 22.7044 15.4362 21.9663C15.3343 21.8749 15.2371 21.7798 15.1444 21.6804C15.1238 21.6585 15.104 21.6362 15.0838 21.6139C14.9958 21.5158 14.9124 21.4147 14.8333 21.3103C14.8152 21.2863 14.7966 21.2623 14.7789 21.2379C14.7011 21.1301 14.6278 21.0194 14.5596 20.9057C14.5457 20.8829 14.5314 20.8606 14.5179 20.8371C14.4488 20.7179 14.3861 20.5958 14.328 20.4712C14.3187 20.4514 14.3086 20.4324 14.2998 20.4122C14.2413 20.2821 14.1899 20.1491 14.144 20.0139C14.1385 19.9971 14.1314 19.9811 14.1259 19.9646C14.0808 19.8274 14.0434 19.6872 14.0109 19.5457C14.0072 19.5293 14.0017 19.5133 13.9983 19.4964C13.968 19.3571 13.9465 19.2156 13.9297 19.0733C13.9272 19.0535 13.9229 19.0341 13.9208 19.0139C13.9036 18.8531 13.8947 18.6905 13.8947 18.5263C13.8947 15.9726 15.9726 13.8947 18.5263 13.8947C18.6905 13.8947 18.8535 13.9036 19.0152 13.9213C19.0341 13.9234 19.0522 13.9276 19.0712 13.9301C19.2143 13.9474 19.3571 13.9693 19.4973 13.9996C19.5133 14.0029 19.5284 14.0084 19.5444 14.0118C19.6867 14.0442 19.8274 14.0817 19.9655 14.1272C19.9811 14.1322 19.9962 14.1385 20.0118 14.144C20.1482 14.1903 20.2825 14.2425 20.4139 14.3015C20.4324 14.3099 20.4505 14.3196 20.4691 14.328C20.5949 14.3865 20.7183 14.4501 20.8387 14.5196C20.8606 14.5322 20.8821 14.5461 20.9036 14.5592C21.0185 14.6286 21.1305 14.7019 21.2396 14.7811C21.2627 14.7979 21.2855 14.8152 21.3082 14.8324C21.4143 14.9124 21.5171 14.9971 21.6164 15.0863C21.6375 15.1053 21.6585 15.1238 21.6787 15.1432C21.7794 15.2371 21.8762 15.336 21.9693 15.4396C22.7057 16.2594 23.1579 17.3398 23.1579 18.5263C23.1579 21.08 21.08 23.1579 18.5263 23.1579Z" fill="black"/>
<path d="M21.0526 18.1052H18.9473V15.9999C18.9473 15.7671 18.7587 15.5789 18.5263 15.5789C18.2939 15.5789 18.1052 15.7671 18.1052 15.9999V18.1052H16C15.7676 18.1052 15.5789 18.2934 15.5789 18.5262C15.5789 18.7591 15.7676 18.9473 16 18.9473H18.1052V21.0525C18.1052 21.2854 18.2939 21.4736 18.5263 21.4736C18.7587 21.4736 18.9473 21.2854 18.9473 21.0525V18.9473H21.0526C21.285 18.9473 21.4737 18.7591 21.4737 18.5262C21.4737 18.2934 21.285 18.1052 21.0526 18.1052Z" fill="black"/>
<path d="M11.3684 5.89484H18.9474C19.1798 5.89484 19.3684 5.70663 19.3684 5.47379C19.3684 5.24094 19.1798 5.05273 18.9474 5.05273H11.3684C11.136 5.05273 10.9474 5.24094 10.9474 5.47379C10.9474 5.70663 11.136 5.89484 11.3684 5.89484Z" fill="black"/>
<path d="M11.3684 11.7894H18.9474C19.1798 11.7894 19.3684 11.6012 19.3684 11.3683C19.3684 11.1355 19.1798 10.9473 18.9474 10.9473H11.3684C11.136 10.9473 10.9474 11.1355 10.9474 11.3683C10.9474 11.6012 11.136 11.7894 11.3684 11.7894Z" fill="black"/>
<path d="M8.07114 3.09477L5.4404 6.16341L3.83156 4.95625C3.64545 4.81688 3.38187 4.85435 3.24209 5.04046C3.1023 5.22614 3.14019 5.49014 3.3263 5.62951L5.25093 7.0733C5.32672 7.13014 5.41514 7.15751 5.50356 7.15751C5.62272 7.15751 5.74061 7.10741 5.82356 7.01014L8.71072 3.64172C8.86187 3.4653 8.84166 3.19962 8.66524 3.04846C8.48882 2.89772 8.22272 2.91793 8.07114 3.09477Z" fill="black"/>
<path d="M8.07114 8.98955L5.4404 12.0582L3.83156 10.851C3.64545 10.7117 3.38187 10.7491 3.24209 10.9352C3.1023 11.1209 3.14019 11.3849 3.3263 11.5243L5.25093 12.9681C5.32672 13.0249 5.41514 13.0523 5.50356 13.0523C5.62272 13.0523 5.74061 13.0022 5.82356 12.9049L8.71072 9.5365C8.86187 9.36008 8.84166 9.09439 8.66524 8.94323C8.48882 8.7925 8.22272 8.81271 8.07114 8.98955Z" fill="black"/>
<path d="M8.07114 15.3052L5.4404 18.3734L3.83156 17.1666C3.64545 17.0277 3.38187 17.0647 3.24209 17.2508C3.1023 17.4365 3.14019 17.7005 3.3263 17.8399L5.25093 19.2837C5.32672 19.3405 5.41514 19.3679 5.50356 19.3679C5.62272 19.3679 5.74061 19.3178 5.82356 19.2205L8.71072 15.8525C8.86187 15.6761 8.84166 15.4104 8.66524 15.2593C8.48882 15.1081 8.22272 15.1283 8.07114 15.3052Z" fill="black"/>
</svg>
