<svg width="24" height="24" viewBox="0 0 24 24" fill="none" xmlns="http://www.w3.org/2000/svg">
<path d="M22.1891 18.9557C21.9575 18.9132 21.739 19.0572 21.6922 19.2845C21.2223 21.6012 19.3996 23.1578 17.1575 23.1578C15.0404 23.1578 13.1802 21.7683 12.5478 19.7894H14.5263V18.9473H11.1579V22.3157H12V20.6951C12.9133 22.6664 14.9116 23.9999 17.1575 23.9999C19.8118 23.9999 21.9659 22.1721 22.5179 19.4521C22.5642 19.2239 22.4168 19.002 22.1891 18.9557Z" fill="black"/>
<path d="M22.1053 15.7091C21.1579 13.8333 19.2826 12.6316 17.1575 12.6316C14.5853 12.6316 12.2981 14.3145 11.5958 16.7246C11.531 16.9478 11.659 17.1815 11.8826 17.2463C12.1053 17.3129 12.3394 17.1832 12.4042 16.9596C12.9929 14.9398 14.9916 13.4737 17.1575 13.4737C19.0796 13.4737 20.7626 14.6383 21.507 16.4211H19.579V17.2632H22.9474V13.8947H22.1053V15.7091Z" fill="black"/>
<path d="M12 5.89484H19.579C19.8118 5.89484 20 5.70663 20 5.47379C20 5.24094 19.8118 5.05273 19.579 5.05273H12C11.7672 5.05273 11.579 5.24094 11.579 5.47379C11.579 5.70663 11.7672 5.89484 12 5.89484Z" fill="black"/>
<path d="M12 11.7894H19.579C19.8118 11.7894 20 11.6012 20 11.3683C20 11.1355 19.8118 10.9473 19.579 10.9473H12C11.7672 10.9473 11.579 11.1355 11.579 11.3683C11.579 11.6012 11.7672 11.7894 12 11.7894Z" fill="black"/>
<path d="M9.29642 3.04896C9.12042 2.89822 8.85431 2.91717 8.70316 3.09443L6.07242 6.16306L4.46316 4.95633C4.27747 4.81696 4.01347 4.85401 3.8741 5.04054C3.73431 5.22622 3.77221 5.49022 3.95831 5.62959L5.88295 7.07338C5.95831 7.13022 6.04716 7.15759 6.13516 7.15759C6.25431 7.15759 6.37221 7.10748 6.45516 7.01022L9.34231 3.6418C9.49389 3.4658 9.47326 3.20054 9.29642 3.04896Z" fill="black"/>
<path d="M9.29642 8.94352C9.12042 8.79236 8.85431 8.81215 8.70316 8.98899L6.07242 12.0576L4.46316 10.8509C4.27747 10.7115 4.01347 10.7486 3.8741 10.9351C3.73431 11.1208 3.77221 11.3848 3.95831 11.5242L5.88295 12.9679C5.95831 13.0248 6.04716 13.0522 6.13516 13.0522C6.25431 13.0522 6.37221 13.002 6.45516 12.9048L9.34231 9.53636C9.49389 9.36036 9.47326 9.0951 9.29642 8.94352Z" fill="black"/>
<path d="M8.70316 15.3054L6.07242 18.3736L4.46316 17.1668C4.27747 17.0279 4.01347 17.0645 3.8741 17.2511C3.73431 17.4367 3.77221 17.7007 3.95831 17.8401L5.88295 19.2839C5.95831 19.3407 6.04716 19.3681 6.13516 19.3681C6.25431 19.3681 6.37221 19.318 6.45516 19.2207L9.34231 15.8527C9.49389 15.6763 9.47368 15.4106 9.29684 15.2595C9.12042 15.1087 8.85431 15.1281 8.70316 15.3054Z" fill="black"/>
<path d="M18.2417 0H5.75833C2.93138 0 0.631592 2.29979 0.631592 5.12674V17.6101C0.631592 20.4371 2.93138 22.7368 5.75833 22.7368H9.4737C9.70654 22.7368 9.89475 22.5486 9.89475 22.3158C9.89475 22.0829 9.70654 21.8947 9.4737 21.8947H5.75833C3.39538 21.8947 1.4737 19.9731 1.4737 17.6101V5.12674C1.4737 2.76379 3.39538 0.842105 5.75833 0.842105H18.2417C20.6046 0.842105 22.5263 2.76379 22.5263 5.12674V11.3684C22.5263 11.6013 22.7145 11.7895 22.9474 11.7895C23.1802 11.7895 23.3684 11.6013 23.3684 11.3684V5.12674C23.3684 2.29979 21.0686 0 18.2417 0Z" fill="black"/>
</svg>
